<?xml version="1.0" encoding="utf-8"?>
<!-- Generator: Adobe Illustrator 24.0.2, SVG Export Plug-In . SVG Version: 6.00 Build 0)  -->
<svg version="1.1" id="Слой_1" xmlns="http://www.w3.org/2000/svg" xmlns:xlink="http://www.w3.org/1999/xlink" x="0px" y="0px"
	 viewBox="0 0 1280 580" style="enable-background:new 0 0 1280 580;" xml:space="preserve">
<style type="text/css">
	.st0{fill:url(#SVGID_1_);}
	.st1{fill:url(#SVGID_2_);}
	.st2{fill:url(#SVGID_3_);}
	.st3{fill:url(#SVGID_4_);}
	.st4{fill:url(#SVGID_5_);}
	.st5{fill:url(#SVGID_6_);}
	.st6{fill:url(#SVGID_7_);}
	.st7{fill:url(#SVGID_8_);}
	.st8{fill:url(#SVGID_9_);}
	.st9{fill:url(#SVGID_10_);}
	.st10{fill:url(#SVGID_11_);}
	.st11{fill:url(#SVGID_12_);}
	.st12{fill:url(#SVGID_13_);}
	.st13{fill:url(#SVGID_14_);}
	.st14{fill:url(#SVGID_15_);}
	.st15{fill:url(#SVGID_16_);}
	.st16{fill:url(#SVGID_17_);}
	.st17{fill:url(#SVGID_18_);}
	.st18{fill:url(#SVGID_19_);}
	.st19{fill:url(#SVGID_20_);}
	.st20{fill:url(#SVGID_21_);}
	.st21{fill:url(#SVGID_22_);}
	.st22{fill:url(#SVGID_23_);}
	.st23{fill:url(#SVGID_24_);}
	.st24{fill:url(#SVGID_25_);}
	.st25{fill:url(#SVGID_26_);}
	.st26{fill:url(#SVGID_27_);}
	.st27{fill:url(#SVGID_28_);}
	.st28{fill:url(#SVGID_29_);}
	.st29{fill:url(#SVGID_30_);}
	.st30{fill:url(#SVGID_31_);}
	.st31{fill:url(#SVGID_32_);}
	.st32{fill:url(#SVGID_33_);}
	.st33{fill:url(#SVGID_34_);}
	.st34{fill:url(#SVGID_35_);}
	.st35{fill:url(#SVGID_36_);}
	.st36{fill:url(#SVGID_37_);}
</style>
<g>
	<linearGradient id="SVGID_1_" gradientUnits="userSpaceOnUse" x1="160.4231" y1="804.726" x2="160.4231" y2="-6.598">
		<stop  offset="0" style="stop-color:#004AD0"/>
		<stop  offset="1" style="stop-color:#00C6FF"/>
	</linearGradient>
	<path class="st0" d="M160.42,554.51c4.35,0,7.89-3.43,7.89-7.65c0-4.22-3.54-7.65-7.89-7.65c-4.35,0-7.89,3.43-7.89,7.65
		C152.53,551.07,156.07,554.51,160.42,554.51z"/>
	<linearGradient id="SVGID_2_" gradientUnits="userSpaceOnUse" x1="97.3" y1="804.726" x2="97.3" y2="-6.598">
		<stop  offset="0" style="stop-color:#004AD0"/>
		<stop  offset="1" style="stop-color:#00C6FF"/>
	</linearGradient>
	<path class="st1" d="M73.63,228.16v85.72l31.56,30.61v46.15l15.78,15.3V185.42c-0.79-0.27-1.56-0.58-2.31-0.93L73.63,228.16z"/>
	<linearGradient id="SVGID_3_" gradientUnits="userSpaceOnUse" x1="65.7404" y1="804.726" x2="65.7404" y2="-6.598">
		<stop  offset="0" style="stop-color:#004AD0"/>
		<stop  offset="1" style="stop-color:#00C6FF"/>
	</linearGradient>
	<path class="st2" d="M65.74,554.51c4.35,0,7.89-3.43,7.89-7.65c0-4.22-3.54-7.65-7.89-7.65c-4.35,0-7.89,3.43-7.89,7.65
		C57.85,551.07,61.39,554.51,65.74,554.51z"/>
	<linearGradient id="SVGID_4_" gradientUnits="userSpaceOnUse" x1="229.9474" y1="804.726" x2="229.9474" y2="-6.598">
		<stop  offset="0" style="stop-color:#004AD0"/>
		<stop  offset="1" style="stop-color:#00C6FF"/>
	</linearGradient>
	<path class="st3" d="M229.95,264.7c-4.35,0-7.89,3.43-7.89,7.65c0,4.22,3.54,7.65,7.89,7.65c4.35,0,7.89-3.43,7.89-7.65
		C237.84,268.13,234.3,264.7,229.95,264.7z"/>
	<linearGradient id="SVGID_5_" gradientUnits="userSpaceOnUse" x1="128.8617" y1="804.726" x2="128.8617" y2="-6.598">
		<stop  offset="0" style="stop-color:#004AD0"/>
		<stop  offset="1" style="stop-color:#00C6FF"/>
	</linearGradient>
	<path class="st4" d="M128.86,156.12c-4.35,0-7.89,3.43-7.89,7.65c0,4.22,3.54,7.65,7.89,7.65c4.35,0,7.89-3.43,7.89-7.65
		C136.75,159.56,133.21,156.12,128.86,156.12z"/>
	<linearGradient id="SVGID_6_" gradientUnits="userSpaceOnUse" x1="34.1789" y1="804.726" x2="34.1789" y2="-6.598">
		<stop  offset="0" style="stop-color:#004AD0"/>
		<stop  offset="1" style="stop-color:#00C6FF"/>
	</linearGradient>
	<path class="st5" d="M34.18,25.49c-4.35,0-7.89,3.43-7.89,7.65c0,4.22,3.54,7.65,7.89,7.65c4.35,0,7.89-3.43,7.89-7.65
		C42.07,28.93,38.53,25.49,34.18,25.49z"/>
	<linearGradient id="SVGID_7_" gradientUnits="userSpaceOnUse" x1="65.7404" y1="804.726" x2="65.7404" y2="-6.598">
		<stop  offset="0" style="stop-color:#004AD0"/>
		<stop  offset="1" style="stop-color:#00C6FF"/>
	</linearGradient>
	<path class="st6" d="M65.74,432.07c4.35,0,7.89-3.43,7.89-7.65c0-4.22-3.54-7.65-7.89-7.65c-4.35,0-7.89,3.43-7.89,7.65
		C57.85,428.63,61.39,432.07,65.74,432.07z"/>
	<linearGradient id="SVGID_8_" gradientUnits="userSpaceOnUse" x1="160.4231" y1="804.726" x2="160.4231" y2="-6.598">
		<stop  offset="0" style="stop-color:#004AD0"/>
		<stop  offset="1" style="stop-color:#00C6FF"/>
	</linearGradient>
	<path class="st7" d="M160.42,40.8c4.35,0,7.89-3.43,7.89-7.65c0-4.22-3.54-7.65-7.89-7.65c-4.35,0-7.89,3.43-7.89,7.65
		C152.53,37.37,156.07,40.8,160.42,40.8z"/>
	<linearGradient id="SVGID_9_" gradientUnits="userSpaceOnUse" x1="112.6353" y1="804.726" x2="112.6353" y2="-6.598">
		<stop  offset="0" style="stop-color:#004AD0"/>
		<stop  offset="1" style="stop-color:#00C6FF"/>
	</linearGradient>
	<path class="st8" d="M160.42,56.1c-10.29,0-19.06-6.4-22.32-15.31H56.49c-2.38,6.51-7.71,11.68-14.43,13.99v82.31l33.87-32.85
		c-1.48-3-2.31-6.35-2.31-9.89c0-12.66,10.62-22.96,23.67-22.96c10.29,0,19.06,6.4,22.32,15.31h63.59l-18.45-31
		C163.34,55.97,161.9,56.1,160.42,56.1z"/>
	<linearGradient id="SVGID_10_" gradientUnits="userSpaceOnUse" x1="626.9335" y1="804.726" x2="626.9335" y2="-6.5957">
		<stop  offset="0" style="stop-color:#004AD0"/>
		<stop  offset="1" style="stop-color:#00C6FF"/>
	</linearGradient>
	<ellipse class="st9" cx="626.93" cy="396.57" rx="7.89" ry="7.65"/>
	<linearGradient id="SVGID_11_" gradientUnits="userSpaceOnUse" x1="160.4231" y1="804.726" x2="160.4231" y2="-6.598">
		<stop  offset="0" style="stop-color:#004AD0"/>
		<stop  offset="1" style="stop-color:#00C6FF"/>
	</linearGradient>
	<path class="st10" d="M160.42,477.98c-4.35,0-7.89,3.43-7.89,7.65c0,4.22,3.54,7.65,7.89,7.65c4.35,0,7.89-3.43,7.89-7.65
		C168.32,481.41,164.77,477.98,160.42,477.98z"/>
	<linearGradient id="SVGID_12_" gradientUnits="userSpaceOnUse" x1="97.3002" y1="804.726" x2="97.3002" y2="-6.598">
		<stop  offset="0" style="stop-color:#004AD0"/>
		<stop  offset="1" style="stop-color:#00C6FF"/>
	</linearGradient>
	<path class="st11" d="M97.3,86.71c-4.35,0-7.89,3.43-7.89,7.65s3.54,7.65,7.89,7.65c4.35,0,7.89-3.43,7.89-7.65
		S101.65,86.71,97.3,86.71z"/>
	<linearGradient id="SVGID_13_" gradientUnits="userSpaceOnUse" x1="346.3352" y1="804.726" x2="346.3352" y2="-6.598">
		<stop  offset="0" style="stop-color:#004AD0"/>
		<stop  offset="1" style="stop-color:#00C6FF"/>
	</linearGradient>
	<path class="st12" d="M346.34,427.99c4.35,0,7.89-3.43,7.89-7.65s-3.54-7.65-7.89-7.65c-4.35,0-7.89,3.43-7.89,7.65
		S341.98,427.99,346.34,427.99z"/>
	<linearGradient id="SVGID_14_" gradientUnits="userSpaceOnUse" x1="595.3743" y1="804.726" x2="595.3743" y2="-6.598">
		<stop  offset="0" style="stop-color:#004AD0"/>
		<stop  offset="1" style="stop-color:#00C6FF"/>
	</linearGradient>
	<path class="st13" d="M595.37,294.33c4.35,0,7.89-3.43,7.89-7.65c0-4.22-3.54-7.65-7.89-7.65c-4.35,0-7.89,3.43-7.89,7.65
		C587.48,290.9,591.02,294.33,595.37,294.33z"/>
	<linearGradient id="SVGID_15_" gradientUnits="userSpaceOnUse" x1="460.3886" y1="804.726" x2="460.3886" y2="-6.598">
		<stop  offset="0" style="stop-color:#004AD0"/>
		<stop  offset="1" style="stop-color:#00C6FF"/>
	</linearGradient>
	<path class="st14" d="M650.61,473.5l-20.4,19.79h-12.51c-3.26,8.91-12.03,15.3-22.32,15.3c-13.05,0-23.67-10.3-23.67-22.96
		c0-3.54,0.83-6.89,2.31-9.89l-18.09-17.55v-67.56l94.69-91.83v-36.4c-9.19-3.16-15.79-11.66-15.79-21.64
		c0-7.47,3.7-14.11,9.41-18.31l-25.19-24.43V121.8l31.56-30.61V54.78c-6.71-2.31-12.04-7.48-14.42-13.99H536.8l-56.5,94.9v37.51
		c6.72,2.31,12.05,7.48,14.43,13.99l9.58,0l59.83-100.49h39.12v46.46l0,131.86c9.18,3.16,15.78,11.67,15.78,21.64
		c0,12.66-10.62,22.96-23.67,22.96c-13.05,0-23.67-10.3-23.67-22.96c0-9.98,6.6-18.48,15.78-21.64l0-131.87v-31.16h-14.22
		l-59.83,100.49l-18.69,0c-2.38,6.51-7.71,11.68-14.43,13.99v41.62l-48.75,81.88h-36.44l-36.25,60.88
		c6.68,4.06,11.13,11.26,11.13,19.46c0,12.66-10.62,22.96-23.67,22.96c-13.05,0-23.67-10.3-23.67-22.96
		c0-8.19,4.45-15.4,11.13-19.46l-39.64-66.58h-23.99v51.52l52.08,87.48h48.18l169.71-285.07v122.48
		c9.18,3.16,15.78,11.66,15.78,21.64c0,9.98-6.6,18.48-15.78,21.64v171.22c6.72,2.31,12.04,7.48,14.43,13.99h81.62
		c2.38-6.51,7.71-11.68,14.43-13.99V473.5z"/>
	<linearGradient id="SVGID_16_" gradientUnits="userSpaceOnUse" x1="346.338" y1="804.726" x2="346.338" y2="-6.598">
		<stop  offset="0" style="stop-color:#004AD0"/>
		<stop  offset="1" style="stop-color:#00C6FF"/>
	</linearGradient>
	<path class="st15" d="M515.42,0.01L346.34,279.17L180.59,0H0v580h194.6V392.51l89.81,150.47h123.85l89.81-150.84V580h194.61V0
		L515.42,0.01z M658.5,569.81c-10.29,0-19.06-6.4-22.32-15.31h-81.62c-3.26,8.91-12.03,15.31-22.32,15.31
		c-13.05,0-23.67-10.3-23.67-22.96c0-9.98,6.6-18.48,15.78-21.64V354c-6.72-2.31-12.05-7.48-14.43-13.99h-5.49L397.75,519.21H294.92
		l-126.6-212.66v157.44c9.18,3.16,15.78,11.67,15.78,21.64c0,12.66-10.62,22.96-23.67,22.96c-13.05,0-23.67-10.3-23.67-22.96
		c0-9.98,6.6-18.48,15.78-21.64V249.44l151.5,254.47h84.62L495.33,324.7h14.6c2.38-6.51,7.71-11.68,14.42-13.99v-65.36L379.54,488.6
		h-66.41l-58.75-98.68V328.7l-20.12-33.78c-1.4,0.25-2.85,0.39-4.32,0.39c-13.05,0-23.67-10.3-23.67-22.96
		c0-5.69,2.15-10.89,5.69-14.9l-18.9-31.73h-31.88h-0.01h-4.55l-2.29-3.83l-17.6-29.56V458.2l-36.18,35.09H81.52H42.07v45.92h1.36
		c3.26-8.91,12.03-15.31,22.32-15.31c10.29,0,19.06,6.4,22.32,15.31h50.05c3.26-8.91,12.03-15.31,22.32-15.31
		c13.05,0,23.67,10.3,23.67,22.96c0,12.66-10.62,22.96-23.67,22.96c-10.29,0-19.06-6.4-22.32-15.31H88.06
		c-3.26,8.91-12.03,15.31-22.32,15.31c-10.29,0-19.06-6.4-22.32-15.31H26.29v-76.52h55.23h12.51l26.94-26.12v-24.28l-31.56-30.61
		v-46.15l-31.56-30.61v-98.39l49.65-48.15c-1.48-3-2.31-6.35-2.31-9.89c0-12.66,10.62-22.96,23.67-22.96s23.67,10.3,23.67,22.96
		c0,5.69-2.15,10.89-5.69,14.9l18.89,31.73h36.44l23.45,39.37c1.4-0.25,2.84-0.39,4.32-0.39c13.05,0,23.67,10.3,23.67,22.96
		c0,5.68-2.15,10.89-5.69,14.9l18.9,31.74h36.44l43.07,72.33l39.67-66.63h36.44l42.08-70.68v-37.53
		c-6.71-2.31-12.04-7.48-14.42-13.99h-9.58l-88.69,148.97h-11.02L192.31,102.01h-72.7c-3.26,8.91-12.03,15.31-22.32,15.31
		c-3.65,0-7.11-0.81-10.2-2.24l-45.03,43.67v185.98l31.56,30.61v27.44c9.18,3.16,15.78,11.67,15.78,21.64
		c0,12.66-10.62,22.96-23.67,22.96s-23.67-10.3-23.67-22.96c0-9.98,6.6-18.48,15.78-21.64v-21.1l-31.56-30.61V54.79
		c-9.18-3.16-15.78-11.67-15.78-21.64c0-12.66,10.62-22.96,23.67-22.96c10.29,0,19.06,6.4,22.32,15.31h81.61
		c3.26-8.91,12.03-15.31,22.32-15.31c13.05,0,23.67,10.3,23.67,22.96c0,5.69-2.15,10.89-5.69,14.9l167.93,282.07l85.08-142.91h18.69
		c2.38-6.51,7.71-11.67,14.42-13.98V131.6l63.16-106.11h108.49c3.26-8.91,12.03-15.3,22.31-15.3c13.05,0,23.67,10.3,23.67,22.96
		c0,9.98-6.6,18.48-15.78,21.64v42.74l-31.56,30.61v63.55l27.2,26.38c11.39,1.66,20.14,11.21,20.14,22.7
		c0,9.97-6.6,18.48-15.78,21.64v42.74l-94.69,91.83v54.88l13.47,13.06c3.09-1.44,6.55-2.24,10.2-2.24c10.29,0,19.06,6.4,22.32,15.31
		h5.98l26.94-26.13v-21.51l-13.47-13.07c-3.09,1.44-6.55,2.24-10.2,2.24c-13.05,0-23.67-10.3-23.67-22.96
		c0-12.66,10.62-22.96,23.67-22.96c13.05,0,23.67,10.3,23.67,22.96c0,3.54-0.83,6.9-2.31,9.89l18.1,17.55v31.02v70.19
		c9.18,3.16,15.78,11.67,15.78,21.64C682.17,559.51,671.55,569.81,658.5,569.81z"/>
	<linearGradient id="SVGID_17_" gradientUnits="userSpaceOnUse" x1="532.2482" y1="804.726" x2="532.2482" y2="-6.598">
		<stop  offset="0" style="stop-color:#004AD0"/>
		<stop  offset="1" style="stop-color:#00C6FF"/>
	</linearGradient>
	<path class="st16" d="M532.25,539.2c-4.35,0-7.89,3.43-7.89,7.65c0,4.22,3.54,7.65,7.89,7.65c4.35,0,7.89-3.43,7.89-7.65
		C540.14,542.63,536.6,539.2,532.25,539.2z"/>
	<linearGradient id="SVGID_18_" gradientUnits="userSpaceOnUse" x1="658.4972" y1="804.726" x2="658.4972" y2="-6.598">
		<stop  offset="0" style="stop-color:#004AD0"/>
		<stop  offset="1" style="stop-color:#00C6FF"/>
	</linearGradient>
	<path class="st17" d="M658.5,539.2c-4.35,0-7.89,3.43-7.89,7.65c0,4.22,3.54,7.65,7.89,7.65c4.35,0,7.89-3.43,7.89-7.65
		C666.39,542.63,662.85,539.2,658.5,539.2z"/>
	<linearGradient id="SVGID_19_" gradientUnits="userSpaceOnUse" x1="472.4227" y1="804.726" x2="472.4227" y2="-6.598">
		<stop  offset="0" style="stop-color:#004AD0"/>
		<stop  offset="1" style="stop-color:#00C6FF"/>
	</linearGradient>
	<path class="st18" d="M472.42,202.51c4.35,0,7.89-3.43,7.89-7.65c0-4.22-3.54-7.65-7.89-7.65c-4.35,0-7.89,3.43-7.89,7.65
		C464.53,199.08,468.07,202.51,472.42,202.51z"/>
	<linearGradient id="SVGID_20_" gradientUnits="userSpaceOnUse" x1="658.4957" y1="804.726" x2="658.4957" y2="-6.598">
		<stop  offset="0" style="stop-color:#004AD0"/>
		<stop  offset="1" style="stop-color:#00C6FF"/>
	</linearGradient>
	<path class="st19" d="M658.5,248.42c4.35,0,7.89-3.43,7.89-7.65c0-4.22-3.54-7.65-7.89-7.65c-4.35,0-7.89,3.43-7.89,7.65
		C650.6,244.99,654.14,248.42,658.5,248.42z"/>
	<linearGradient id="SVGID_21_" gradientUnits="userSpaceOnUse" x1="658.4974" y1="804.726" x2="658.4974" y2="-6.598">
		<stop  offset="0" style="stop-color:#004AD0"/>
		<stop  offset="1" style="stop-color:#00C6FF"/>
	</linearGradient>
	<path class="st20" d="M658.5,40.8c4.35,0,7.89-3.43,7.89-7.65c0-4.22-3.54-7.65-7.89-7.65c-4.35,0-7.89,3.43-7.89,7.65
		C650.61,37.37,654.15,40.8,658.5,40.8z"/>
	<linearGradient id="SVGID_22_" gradientUnits="userSpaceOnUse" x1="595.3728" y1="804.726" x2="595.3728" y2="-6.598">
		<stop  offset="0" style="stop-color:#004AD0"/>
		<stop  offset="1" style="stop-color:#00C6FF"/>
	</linearGradient>
	<path class="st21" d="M595.37,493.29c4.35,0,7.89-3.43,7.89-7.65c0-4.22-3.54-7.65-7.89-7.65c-4.35,0-7.89,3.43-7.89,7.65
		C587.48,489.86,591.02,493.29,595.37,493.29z"/>
	<linearGradient id="SVGID_23_" gradientUnits="userSpaceOnUse" x1="532.2482" y1="804.726" x2="532.2482" y2="-6.598">
		<stop  offset="0" style="stop-color:#004AD0"/>
		<stop  offset="1" style="stop-color:#00C6FF"/>
	</linearGradient>
	<path class="st22" d="M532.25,340.01c4.35,0,7.89-3.43,7.89-7.65c0-4.22-3.54-7.65-7.89-7.65c-4.35,0-7.89,3.43-7.89,7.65
		C524.36,336.58,527.9,340.01,532.25,340.01z"/>
</g>
<g>
	<linearGradient id="SVGID_24_" gradientUnits="userSpaceOnUse" x1="1026.1654" y1="804.726" x2="1026.1654" y2="-6.598">
		<stop  offset="0" style="stop-color:#004AD0"/>
		<stop  offset="1" style="stop-color:#00C6FF"/>
	</linearGradient>
	<path class="st23" d="M938.98,231.96l-15.78,15.3V397l-18.09,17.55c1.48,3,2.31,6.35,2.31,9.89c0,3.54-0.83,6.89-2.31,9.89
		l31.56,30.61c3.09-1.44,6.55-2.24,10.2-2.24c3.65,0,7.11,0.81,10.2,2.24l18.09-17.54h156.28l15.78-15.3H975.17L938.98,397V231.96z"
		/>
	<linearGradient id="SVGID_25_" gradientUnits="userSpaceOnUse" x1="915.3138" y1="804.726" x2="915.3138" y2="-6.598">
		<stop  offset="0" style="stop-color:#004AD0"/>
		<stop  offset="1" style="stop-color:#00C6FF"/>
	</linearGradient>
	<path class="st24" d="M907.42,213.49c0,9.97-6.6,18.48-15.78,21.64v167.67c0.79,0.27,1.56,0.58,2.31,0.93l13.47-13.06V240.92
		l31.56-30.61v-51.58l-47.34-45.91v79.02C900.83,195.01,907.42,203.51,907.42,213.49z"/>
	<linearGradient id="SVGID_26_" gradientUnits="userSpaceOnUse" x1="946.874" y1="804.726" x2="946.874" y2="-6.598">
		<stop  offset="0" style="stop-color:#004AD0"/>
		<stop  offset="1" style="stop-color:#00C6FF"/>
	</linearGradient>
	<path class="st25" d="M946.87,40.79c4.35,0,7.89-3.43,7.89-7.65s-3.54-7.65-7.89-7.65c-4.35,0-7.89,3.43-7.89,7.65
		S942.52,40.79,946.87,40.79z"/>
	<linearGradient id="SVGID_27_" gradientUnits="userSpaceOnUse" x1="946.874" y1="804.726" x2="946.874" y2="-6.598">
		<stop  offset="0" style="stop-color:#004AD0"/>
		<stop  offset="1" style="stop-color:#00C6FF"/>
	</linearGradient>
	<path class="st26" d="M946.87,477.99c-4.35,0-7.89,3.43-7.89,7.65c0,4.22,3.54,7.65,7.89,7.65c4.35,0,7.89-3.43,7.89-7.65
		C954.76,481.42,951.22,477.99,946.87,477.99z"/>
	<linearGradient id="SVGID_28_" gradientUnits="userSpaceOnUse" x1="1213.6121" y1="804.726" x2="1213.6121" y2="-6.598">
		<stop  offset="0" style="stop-color:#004AD0"/>
		<stop  offset="1" style="stop-color:#00C6FF"/>
	</linearGradient>
	<path class="st27" d="M1213.61,493.3c4.35,0,7.89-3.43,7.89-7.65c0-4.22-3.54-7.65-7.89-7.65c-4.35,0-7.89,3.43-7.89,7.65
		C1205.72,489.86,1209.26,493.3,1213.61,493.3z"/>
	<linearGradient id="SVGID_29_" gradientUnits="userSpaceOnUse" x1="1182.0518" y1="804.726" x2="1182.0518" y2="-6.598">
		<stop  offset="0" style="stop-color:#004AD0"/>
		<stop  offset="1" style="stop-color:#00C6FF"/>
	</linearGradient>
	<path class="st28" d="M1182.05,432.08c4.35,0,7.89-3.43,7.89-7.65s-3.54-7.65-7.89-7.65s-7.89,3.43-7.89,7.65
		S1177.7,432.08,1182.05,432.08z"/>
	<linearGradient id="SVGID_30_" gradientUnits="userSpaceOnUse" x1="1096.0227" y1="804.726" x2="1096.0227" y2="-6.598">
		<stop  offset="0" style="stop-color:#004AD0"/>
		<stop  offset="1" style="stop-color:#00C6FF"/>
	</linearGradient>
	<polygon class="st29" points="1178.78,493.3 1029.04,493.3 1013.26,508.6 1163,508.6 	"/>
	<linearGradient id="SVGID_31_" gradientUnits="userSpaceOnUse" x1="852.1932" y1="804.726" x2="852.1932" y2="-6.598">
		<stop  offset="0" style="stop-color:#004AD0"/>
		<stop  offset="1" style="stop-color:#00C6FF"/>
	</linearGradient>
	<path class="st30" d="M844.3,286.83l31.56-30.61v-21.1c-9.18-3.16-15.78-11.66-15.78-21.64s6.6-18.48,15.78-21.64V51.62
		l-47.34,45.91v293.13l15.78-15.3V286.83z"/>
	<linearGradient id="SVGID_32_" gradientUnits="userSpaceOnUse" x1="883.7535" y1="804.726" x2="883.7535" y2="-6.598">
		<stop  offset="0" style="stop-color:#004AD0"/>
		<stop  offset="1" style="stop-color:#00C6FF"/>
	</linearGradient>
	<ellipse class="st31" cx="883.75" cy="213.49" rx="7.89" ry="7.65"/>
	<linearGradient id="SVGID_33_" gradientUnits="userSpaceOnUse" x1="820.6316" y1="804.726" x2="820.6316" y2="-6.598">
		<stop  offset="0" style="stop-color:#004AD0"/>
		<stop  offset="1" style="stop-color:#00C6FF"/>
	</linearGradient>
	<path class="st32" d="M820.63,539.18c-4.35,0-7.89,3.43-7.89,7.65c0,4.22,3.54,7.65,7.89,7.65s7.89-3.43,7.89-7.65
		C828.52,542.61,824.98,539.18,820.63,539.18z"/>
	<linearGradient id="SVGID_34_" gradientUnits="userSpaceOnUse" x1="1033.2277" y1="804.726" x2="1033.2277" y2="-6.598">
		<stop  offset="0" style="stop-color:#004AD0"/>
		<stop  offset="1" style="stop-color:#00C6FF"/>
	</linearGradient>
	<path class="st33" d="M981.05,391.29V0h-194.6v580H1280V391.29H981.05z M1245.82,569.81c-10.29,0-19.06-6.4-22.31-15.3H842.94
		c-3.26,8.89-12.03,15.28-22.3,15.28c-13.05,0-23.67-10.3-23.67-22.95c0-12.66,10.62-22.96,23.67-22.96c3.65,0,7.11,0.81,10.2,2.24
		l13.47-13.07v-39.57l-31.56-30.61V91.19l67.74-65.69h44.08c3.26-8.91,12.03-15.3,22.31-15.3c13.05,0,23.67,10.3,23.67,22.95
		S959.93,56.1,946.87,56.1c-10.29,0-19.06-6.4-22.31-15.3h-32.92v50.39l63.12,61.21v238.26l26.94,26.12h178.04
		c3.26-8.91,12.03-15.31,22.31-15.31c13.05,0,23.67,10.3,23.67,22.95s-10.62,22.95-23.67,22.95c-7.7,0-14.55-3.59-18.88-9.13
		l-25.19,24.43H981.7l-13.47,13.06c1.48,3,2.31,6.35,2.31,9.89c0,12.66-10.62,22.95-23.67,22.95c-3.65,0-7.11-0.81-10.2-2.24
		l-18.06,17.52h-63.15l-13.47,13.07c0.36,0.73,0.68,1.49,0.96,2.26h116.44l63.12-61.21h168.79c3.26-8.91,12.03-15.31,22.31-15.31
		c13.05,0,23.67,10.3,23.67,22.95c0,12.66-10.62,22.95-23.67,22.95c-7.7,0-14.55-3.59-18.88-9.13l-25.19,24.43H997.48l-15.78,15.3
		h241.8c3.26-8.91,12.03-15.3,22.31-15.3c13.05,0,23.67,10.3,23.67,22.95C1269.49,559.51,1258.88,569.81,1245.82,569.81z"/>
	<linearGradient id="SVGID_35_" gradientUnits="userSpaceOnUse" x1="1245.8237" y1="804.726" x2="1245.8237" y2="-6.598">
		<stop  offset="0" style="stop-color:#004AD0"/>
		<stop  offset="1" style="stop-color:#00C6FF"/>
	</linearGradient>
	<ellipse class="st34" cx="1245.82" cy="546.86" rx="7.89" ry="7.65"/>
	<linearGradient id="SVGID_36_" gradientUnits="userSpaceOnUse" x1="877.0204" y1="804.726" x2="877.0204" y2="-6.598">
		<stop  offset="0" style="stop-color:#004AD0"/>
		<stop  offset="1" style="stop-color:#00C6FF"/>
	</linearGradient>
	<path class="st35" d="M860.08,508.57h51.99l13.44-13.03c-1.48-3-2.31-6.35-2.31-9.89c0-3.54,0.83-6.89,2.31-9.89l-31.57-30.61
		c-3.09,1.44-6.55,2.24-10.2,2.24c-13.05,0-23.67-10.3-23.67-22.95c0-9.98,6.6-18.48,15.78-21.64V277.87l-15.78,15.3v88.52
		l-31.56,30.61v24.24l31.56,30.61V508.57z"/>
	<linearGradient id="SVGID_37_" gradientUnits="userSpaceOnUse" x1="883.7535" y1="804.726" x2="883.7535" y2="-6.598">
		<stop  offset="0" style="stop-color:#004AD0"/>
		<stop  offset="1" style="stop-color:#00C6FF"/>
	</linearGradient>
	<path class="st36" d="M883.75,416.78c-4.35,0-7.89,3.43-7.89,7.65s3.54,7.65,7.89,7.65s7.89-3.43,7.89-7.65
		S888.1,416.78,883.75,416.78z"/>
</g>
</svg>
