<?xml version="1.0" encoding="utf-8"?>
<!-- Generator: Adobe Illustrator 24.0.2, SVG Export Plug-In . SVG Version: 6.00 Build 0)  -->
<svg version="1.1" id="Слой_1" xmlns="http://www.w3.org/2000/svg" xmlns:xlink="http://www.w3.org/1999/xlink" x="0px" y="0px"
	 viewBox="0 0 1280 250" style="enable-background:new 0 0 1280 250;" xml:space="preserve">
<style type="text/css">
	.st0{fill:url(#SVGID_1_);}
	.st1{fill:url(#SVGID_2_);}
	.st2{fill:url(#SVGID_3_);}
	.st3{fill:url(#SVGID_4_);}
	.st4{fill:url(#SVGID_5_);}
	.st5{fill:url(#SVGID_6_);}
	.st6{fill:url(#SVGID_7_);}
	.st7{fill:url(#SVGID_8_);}
	.st8{fill:url(#SVGID_9_);}
	.st9{fill:url(#SVGID_10_);}
	.st10{fill:url(#SVGID_11_);}
	.st11{fill:url(#SVGID_12_);}
	.st12{fill:url(#SVGID_13_);}
	.st13{fill:url(#SVGID_14_);}
	.st14{fill:url(#SVGID_15_);}
	.st15{fill:url(#SVGID_16_);}
	.st16{fill:url(#SVGID_17_);}
	.st17{fill:url(#SVGID_18_);}
	.st18{fill:url(#SVGID_19_);}
	.st19{fill:url(#SVGID_20_);}
	.st20{fill:url(#SVGID_21_);}
	.st21{fill:url(#SVGID_22_);}
	.st22{fill:url(#SVGID_23_);}
	.st23{fill:url(#SVGID_24_);}
	.st24{fill:url(#SVGID_25_);}
	.st25{fill:url(#SVGID_26_);}
	.st26{fill:url(#SVGID_27_);}
	.st27{fill:url(#SVGID_28_);}
	.st28{fill:url(#SVGID_29_);}
	.st29{fill:url(#SVGID_30_);}
	.st30{fill:url(#SVGID_31_);}
	.st31{fill:url(#SVGID_32_);}
	.st32{fill:url(#SVGID_33_);}
	.st33{fill:url(#SVGID_34_);}
	.st34{fill:url(#SVGID_35_);}
	.st35{fill:url(#SVGID_36_);}
	.st36{fill:url(#SVGID_37_);}
	.st37{fill:#FFFFFF;}
</style>
<g>
	<g>
		<g>
			<linearGradient id="SVGID_1_" gradientUnits="userSpaceOnUse" x1="67.7577" y1="343.5625" x2="67.7577" y2="-2.8169">
				<stop  offset="0" style="stop-color:#004AD0"/>
				<stop  offset="1" style="stop-color:#00C6FF"/>
			</linearGradient>
			<path class="st0" d="M67.76,236.74c1.84,0,3.33-1.47,3.33-3.27c0-1.8-1.5-3.27-3.33-3.27c-1.84,0-3.33,1.47-3.33,3.27
				C64.42,235.27,65.92,236.74,67.76,236.74z"/>
			<linearGradient id="SVGID_2_" gradientUnits="userSpaceOnUse" x1="41.0965" y1="343.5625" x2="41.0965" y2="-2.8169">
				<stop  offset="0" style="stop-color:#004AD0"/>
				<stop  offset="1" style="stop-color:#00C6FF"/>
			</linearGradient>
			<path class="st1" d="M31.1,97.41v36.6l13.33,13.07v19.7l6.67,6.53V79.16c-0.33-0.12-0.66-0.25-0.98-0.4L31.1,97.41z"/>
			<linearGradient id="SVGID_3_" gradientUnits="userSpaceOnUse" x1="27.7667" y1="343.5625" x2="27.7667" y2="-2.8169">
				<stop  offset="0" style="stop-color:#004AD0"/>
				<stop  offset="1" style="stop-color:#00C6FF"/>
			</linearGradient>
			<path class="st2" d="M27.77,236.74c1.84,0,3.33-1.47,3.33-3.27c0-1.8-1.5-3.27-3.33-3.27c-1.84,0-3.33,1.47-3.33,3.27
				C24.43,235.27,25.93,236.74,27.77,236.74z"/>
			<linearGradient id="SVGID_4_" gradientUnits="userSpaceOnUse" x1="97.1226" y1="343.5625" x2="97.1226" y2="-2.8169">
				<stop  offset="0" style="stop-color:#004AD0"/>
				<stop  offset="1" style="stop-color:#00C6FF"/>
			</linearGradient>
			<path class="st3" d="M97.12,113.01c-1.84,0-3.33,1.47-3.33,3.27c0,1.8,1.5,3.27,3.33,3.27c1.84,0,3.33-1.47,3.33-3.27
				C100.46,114.47,98.96,113.01,97.12,113.01z"/>
			<linearGradient id="SVGID_5_" gradientUnits="userSpaceOnUse" x1="54.4272" y1="343.5625" x2="54.4272" y2="-2.8169">
				<stop  offset="0" style="stop-color:#004AD0"/>
				<stop  offset="1" style="stop-color:#00C6FF"/>
			</linearGradient>
			<path class="st4" d="M54.43,66.65c-1.84,0-3.33,1.47-3.33,3.27c0,1.8,1.5,3.27,3.33,3.27c1.84,0,3.33-1.47,3.33-3.27
				C57.76,68.12,56.27,66.65,54.43,66.65z"/>
			<linearGradient id="SVGID_6_" gradientUnits="userSpaceOnUse" x1="14.4361" y1="343.5625" x2="14.4361" y2="-2.8169">
				<stop  offset="0" style="stop-color:#004AD0"/>
				<stop  offset="1" style="stop-color:#00C6FF"/>
			</linearGradient>
			<path class="st5" d="M14.44,10.88c-1.84,0-3.33,1.47-3.33,3.27c0,1.8,1.5,3.27,3.33,3.27c1.84,0,3.33-1.47,3.33-3.27
				C17.77,12.35,16.27,10.88,14.44,10.88z"/>
			<linearGradient id="SVGID_7_" gradientUnits="userSpaceOnUse" x1="27.7667" y1="343.5625" x2="27.7667" y2="-2.8169">
				<stop  offset="0" style="stop-color:#004AD0"/>
				<stop  offset="1" style="stop-color:#00C6FF"/>
			</linearGradient>
			<path class="st6" d="M27.77,184.46c1.84,0,3.33-1.47,3.33-3.27c0-1.8-1.5-3.27-3.33-3.27c-1.84,0-3.33,1.47-3.33,3.27
				C24.43,183,25.93,184.46,27.77,184.46z"/>
			<linearGradient id="SVGID_8_" gradientUnits="userSpaceOnUse" x1="67.7577" y1="343.5625" x2="67.7577" y2="-2.8169">
				<stop  offset="0" style="stop-color:#004AD0"/>
				<stop  offset="1" style="stop-color:#00C6FF"/>
			</linearGradient>
			<path class="st7" d="M67.76,17.42c1.84,0,3.33-1.47,3.33-3.27c0-1.8-1.5-3.27-3.33-3.27c-1.84,0-3.33,1.47-3.33,3.27
				C64.42,15.95,65.92,17.42,67.76,17.42z"/>
			<linearGradient id="SVGID_9_" gradientUnits="userSpaceOnUse" x1="47.5737" y1="343.5625" x2="47.5737" y2="-2.8169">
				<stop  offset="0" style="stop-color:#004AD0"/>
				<stop  offset="1" style="stop-color:#00C6FF"/>
			</linearGradient>
			<path class="st8" d="M67.76,23.95c-4.34,0-8.05-2.73-9.43-6.53H23.86c-1.01,2.78-3.26,4.99-6.09,5.97v35.14l14.31-14.02
				c-0.63-1.28-0.98-2.71-0.98-4.22c0-5.4,4.49-9.8,10-9.8c4.35,0,8.05,2.73,9.43,6.53h26.86l-7.79-13.23
				C68.99,23.89,68.38,23.95,67.76,23.95z"/>
			<linearGradient id="SVGID_10_" gradientUnits="userSpaceOnUse" x1="264.7972" y1="343.5625" x2="264.7972" y2="-2.8159">
				<stop  offset="0" style="stop-color:#004AD0"/>
				<stop  offset="1" style="stop-color:#00C6FF"/>
			</linearGradient>
			<ellipse class="st9" cx="264.8" cy="169.31" rx="3.33" ry="3.27"/>
			<linearGradient id="SVGID_11_" gradientUnits="userSpaceOnUse" x1="67.7577" y1="343.5625" x2="67.7577" y2="-2.8169">
				<stop  offset="0" style="stop-color:#004AD0"/>
				<stop  offset="1" style="stop-color:#00C6FF"/>
			</linearGradient>
			<path class="st10" d="M67.76,204.06c-1.84,0-3.33,1.47-3.33,3.27c0,1.8,1.5,3.27,3.33,3.27c1.84,0,3.33-1.47,3.33-3.27
				C71.09,205.53,69.6,204.06,67.76,204.06z"/>
			<linearGradient id="SVGID_12_" gradientUnits="userSpaceOnUse" x1="41.0966" y1="343.5625" x2="41.0966" y2="-2.8169">
				<stop  offset="0" style="stop-color:#004AD0"/>
				<stop  offset="1" style="stop-color:#00C6FF"/>
			</linearGradient>
			<path class="st11" d="M41.1,37.02c-1.84,0-3.33,1.47-3.33,3.27c0,1.8,1.5,3.27,3.33,3.27c1.84,0,3.33-1.47,3.33-3.27
				C44.43,38.48,42.93,37.02,41.1,37.02z"/>
			<linearGradient id="SVGID_13_" gradientUnits="userSpaceOnUse" x1="146.2812" y1="343.5625" x2="146.2812" y2="-2.8169">
				<stop  offset="0" style="stop-color:#004AD0"/>
				<stop  offset="1" style="stop-color:#00C6FF"/>
			</linearGradient>
			<path class="st12" d="M146.28,182.72c1.84,0,3.33-1.47,3.33-3.27s-1.49-3.27-3.33-3.27c-1.84,0-3.33,1.47-3.33,3.27
				S144.44,182.72,146.28,182.72z"/>
			<linearGradient id="SVGID_14_" gradientUnits="userSpaceOnUse" x1="251.4676" y1="343.5625" x2="251.4676" y2="-2.8169">
				<stop  offset="0" style="stop-color:#004AD0"/>
				<stop  offset="1" style="stop-color:#00C6FF"/>
			</linearGradient>
			<path class="st13" d="M251.47,125.66c1.84,0,3.33-1.47,3.33-3.27c0-1.8-1.5-3.27-3.33-3.27c-1.84,0-3.33,1.47-3.33,3.27
				C248.13,124.19,249.63,125.66,251.47,125.66z"/>
			<linearGradient id="SVGID_15_" gradientUnits="userSpaceOnUse" x1="194.4538" y1="343.5625" x2="194.4538" y2="-2.8169">
				<stop  offset="0" style="stop-color:#004AD0"/>
				<stop  offset="1" style="stop-color:#00C6FF"/>
			</linearGradient>
			<path class="st14" d="M274.8,202.15l-8.62,8.45h-5.29c-1.38,3.8-5.08,6.53-9.43,6.53c-5.51,0-10-4.4-10-9.8
				c0-1.51,0.35-2.94,0.98-4.22l-7.64-7.49v-28.84l39.99-39.2v-15.54c-3.88-1.35-6.67-4.98-6.67-9.24c0-3.19,1.56-6.03,3.98-7.82
				l-10.64-10.43V52l13.33-13.07V23.39c-2.84-0.99-5.08-3.19-6.09-5.97h-41.97l-23.86,40.52v16.02c2.84,0.99,5.09,3.19,6.09,5.97
				l4.05,0l25.27-42.9h16.52v19.84l0,56.3c3.88,1.35,6.67,4.98,6.67,9.24c0,5.4-4.49,9.8-10,9.8s-10-4.4-10-9.8
				c0-4.26,2.79-7.89,6.67-9.24l0-56.3v-13.3h-6.01l-25.27,42.9l-7.89,0c-1.01,2.78-3.26,4.99-6.09,5.97v17.77l-20.59,34.96h-15.39
				l-15.31,25.99c2.82,1.73,4.7,4.81,4.7,8.31c0,5.4-4.48,9.8-10,9.8c-5.51,0-10-4.4-10-9.8c0-3.5,1.88-6.57,4.7-8.31l-16.74-28.42
				h-10.13v22l22,37.35h20.35l71.68-121.7v52.29c3.88,1.35,6.67,4.98,6.67,9.24s-2.79,7.89-6.67,9.24v73.1
				c2.84,0.99,5.09,3.19,6.09,5.97h34.47c1.01-2.78,3.26-4.99,6.09-5.97V202.15z"/>
			<linearGradient id="SVGID_16_" gradientUnits="userSpaceOnUse" x1="146.2824" y1="343.5625" x2="146.2824" y2="-2.8169">
				<stop  offset="0" style="stop-color:#004AD0"/>
				<stop  offset="1" style="stop-color:#00C6FF"/>
			</linearGradient>
			<path class="st15" d="M217.7,0l-71.42,119.19L76.28,0H0v247.62h82.19v-80.04l37.93,64.24h52.31l37.93-64.4v80.2h82.2V0L217.7,0z
				 M278.13,243.27c-4.35,0-8.05-2.73-9.43-6.53h-34.47c-1.38,3.8-5.08,6.53-9.43,6.53c-5.51,0-10-4.4-10-9.8
				c0-4.26,2.79-7.89,6.67-9.24v-73.1c-2.84-0.99-5.09-3.19-6.09-5.97h-2.32L168,221.67h-43.44l-53.47-90.79v67.22
				c3.88,1.35,6.67,4.98,6.67,9.24c0,5.4-4.49,9.8-10,9.8c-5.51,0-10-4.4-10-9.8c0-4.26,2.79-7.89,6.67-9.24v-91.6l63.99,108.64
				h35.74l45.06-76.51h6.17c1.01-2.78,3.26-4.99,6.09-5.97v-27.91L160.31,208.6h-28.05l-24.81-42.13v-26.14l-8.5-14.42
				c-0.59,0.11-1.2,0.17-1.83,0.17c-5.51,0-10-4.4-10-9.8c0-2.43,0.91-4.65,2.4-6.36l-7.98-13.55H68.08h0h-1.92l-0.97-1.63
				l-7.43-12.62v113.5L42.48,210.6h-8.04H17.77v19.6h0.57c1.38-3.8,5.08-6.53,9.43-6.53c4.35,0,8.05,2.73,9.43,6.53h21.14
				c1.38-3.8,5.08-6.53,9.43-6.53c5.51,0,10,4.4,10,9.8c0,5.4-4.49,9.8-10,9.8c-4.34,0-8.05-2.73-9.43-6.53H37.19
				c-1.38,3.8-5.08,6.53-9.43,6.53c-4.35,0-8.05-2.73-9.43-6.53H11.1v-32.67h23.33h5.28l11.38-11.15v-10.36l-13.33-13.07v-19.7
				l-13.33-13.07V94.7l20.97-20.56c-0.63-1.28-0.98-2.71-0.98-4.22c0-5.4,4.49-9.8,10-9.8s10,4.4,10,9.8c0,2.43-0.91,4.65-2.4,6.36
				L70,89.83h15.39l9.9,16.81c0.59-0.11,1.2-0.17,1.82-0.17c5.51,0,10,4.4,10,9.8c0,2.43-0.91,4.65-2.4,6.36l7.98,13.55h15.39
				l18.19,30.88l16.76-28.45h15.39l17.77-30.18V92.43c-2.83-0.99-5.08-3.19-6.09-5.97h-4.05l-37.46,63.6h-4.65L81.23,43.55h-30.7
				c-1.38,3.8-5.08,6.53-9.43,6.53c-1.54,0-3-0.34-4.31-0.96L17.77,67.77v79.4l13.33,13.07v11.72c3.88,1.35,6.67,4.98,6.67,9.24
				c0,5.4-4.49,9.8-10,9.8s-10-4.4-10-9.8c0-4.26,2.79-7.89,6.67-9.24v-9.01L11.1,149.88V23.39c-3.88-1.35-6.67-4.98-6.67-9.24
				c0-5.4,4.49-9.8,10-9.8c4.35,0,8.05,2.73,9.43,6.53h34.47c1.38-3.8,5.08-6.53,9.43-6.53c5.51,0,10,4.4,10,9.8
				c0,2.43-0.91,4.65-2.4,6.36l70.93,120.42l35.94-61.01h7.89c1.01-2.78,3.25-4.98,6.09-5.97V56.18l26.68-45.3h45.82
				c1.38-3.8,5.08-6.53,9.42-6.53c5.51,0,10,4.4,10,9.8c0,4.26-2.79,7.89-6.67,9.24v18.25l-13.33,13.07v27.13l11.49,11.26
				c4.81,0.71,8.51,4.78,8.51,9.69c0,4.26-2.79,7.89-6.66,9.24v18.25l-39.99,39.2v23.43l5.69,5.58c1.31-0.61,2.77-0.96,4.31-0.96
				c4.35,0,8.05,2.73,9.43,6.53h2.52l11.38-11.15v-9.18l-5.69-5.58c-1.31,0.61-2.77,0.96-4.31,0.96c-5.51,0-10-4.4-10-9.8
				c0-5.4,4.49-9.8,10-9.8c5.51,0,10,4.4,10,9.8c0,1.51-0.35,2.94-0.98,4.22l7.64,7.49v13.24v29.96c3.88,1.35,6.67,4.98,6.67,9.24
				C288.13,238.87,283.64,243.27,278.13,243.27z"/>
			<linearGradient id="SVGID_17_" gradientUnits="userSpaceOnUse" x1="224.8051" y1="343.5625" x2="224.8051" y2="-2.8169">
				<stop  offset="0" style="stop-color:#004AD0"/>
				<stop  offset="1" style="stop-color:#00C6FF"/>
			</linearGradient>
			<path class="st16" d="M224.81,230.2c-1.84,0-3.33,1.47-3.33,3.27c0,1.8,1.5,3.27,3.33,3.27c1.84,0,3.33-1.47,3.33-3.27
				C228.14,231.67,226.64,230.2,224.81,230.2z"/>
			<linearGradient id="SVGID_18_" gradientUnits="userSpaceOnUse" x1="278.1287" y1="343.5625" x2="278.1287" y2="-2.8169">
				<stop  offset="0" style="stop-color:#004AD0"/>
				<stop  offset="1" style="stop-color:#00C6FF"/>
			</linearGradient>
			<path class="st17" d="M278.13,230.2c-1.84,0-3.33,1.47-3.33,3.27c0,1.8,1.5,3.27,3.33,3.27c1.84,0,3.33-1.47,3.33-3.27
				C281.46,231.67,279.97,230.2,278.13,230.2z"/>
			<linearGradient id="SVGID_19_" gradientUnits="userSpaceOnUse" x1="199.5367" y1="343.5625" x2="199.5367" y2="-2.8169">
				<stop  offset="0" style="stop-color:#004AD0"/>
				<stop  offset="1" style="stop-color:#00C6FF"/>
			</linearGradient>
			<path class="st18" d="M199.54,86.46c1.84,0,3.33-1.47,3.33-3.27c0-1.8-1.49-3.27-3.33-3.27c-1.84,0-3.33,1.47-3.33,3.27
				C196.2,84.99,197.7,86.46,199.54,86.46z"/>
			<linearGradient id="SVGID_20_" gradientUnits="userSpaceOnUse" x1="278.1281" y1="343.5625" x2="278.1281" y2="-2.8169">
				<stop  offset="0" style="stop-color:#004AD0"/>
				<stop  offset="1" style="stop-color:#00C6FF"/>
			</linearGradient>
			<path class="st19" d="M278.13,106.06c1.84,0,3.33-1.47,3.33-3.27c0-1.8-1.5-3.27-3.33-3.27c-1.84,0-3.33,1.47-3.33,3.27
				C274.79,104.59,276.29,106.06,278.13,106.06z"/>
			<linearGradient id="SVGID_21_" gradientUnits="userSpaceOnUse" x1="278.1288" y1="343.5625" x2="278.1288" y2="-2.8169">
				<stop  offset="0" style="stop-color:#004AD0"/>
				<stop  offset="1" style="stop-color:#00C6FF"/>
			</linearGradient>
			<path class="st20" d="M278.13,17.42c1.84,0,3.33-1.47,3.33-3.27c0-1.8-1.5-3.27-3.33-3.27c-1.84,0-3.33,1.47-3.33,3.27
				C274.8,15.95,276.29,17.42,278.13,17.42z"/>
			<linearGradient id="SVGID_22_" gradientUnits="userSpaceOnUse" x1="251.4669" y1="343.5625" x2="251.4669" y2="-2.8169">
				<stop  offset="0" style="stop-color:#004AD0"/>
				<stop  offset="1" style="stop-color:#00C6FF"/>
			</linearGradient>
			<path class="st21" d="M251.47,210.6c1.84,0,3.33-1.47,3.33-3.27c0-1.8-1.5-3.27-3.33-3.27c-1.84,0-3.33,1.47-3.33,3.27
				C248.13,209.13,249.63,210.6,251.47,210.6z"/>
			<linearGradient id="SVGID_23_" gradientUnits="userSpaceOnUse" x1="224.8051" y1="343.5625" x2="224.8051" y2="-2.8169">
				<stop  offset="0" style="stop-color:#004AD0"/>
				<stop  offset="1" style="stop-color:#00C6FF"/>
			</linearGradient>
			<path class="st22" d="M224.81,145.16c1.84,0,3.33-1.47,3.33-3.27c0-1.8-1.5-3.27-3.33-3.27c-1.84,0-3.33,1.47-3.33,3.27
				C221.47,143.69,222.97,145.16,224.81,145.16z"/>
		</g>
		<g>
			<linearGradient id="SVGID_24_" gradientUnits="userSpaceOnUse" x1="433.4203" y1="343.5625" x2="433.4203" y2="-2.8169">
				<stop  offset="0" style="stop-color:#004AD0"/>
				<stop  offset="1" style="stop-color:#00C6FF"/>
			</linearGradient>
			<path class="st23" d="M396.6,99.03l-6.67,6.53v63.93l-7.64,7.49c0.63,1.28,0.98,2.71,0.98,4.22c0,1.51-0.35,2.94-0.98,4.22
				l13.33,13.07c1.31-0.61,2.77-0.96,4.31-0.96c1.54,0,3,0.34,4.31,0.96l7.64-7.49h66.01l6.66-6.53h-72.67l-15.28-14.98V99.03z"/>
			<linearGradient id="SVGID_25_" gradientUnits="userSpaceOnUse" x1="386.6" y1="343.5625" x2="386.6" y2="-2.8169">
				<stop  offset="0" style="stop-color:#004AD0"/>
				<stop  offset="1" style="stop-color:#00C6FF"/>
			</linearGradient>
			<path class="st24" d="M383.27,91.14c0,4.26-2.79,7.89-6.67,9.24v71.58c0.33,0.12,0.66,0.25,0.98,0.4l5.69-5.58v-63.93
				l13.33-13.07V67.77l-20-19.6v33.74C380.48,83.25,383.27,86.88,383.27,91.14z"/>
			<linearGradient id="SVGID_26_" gradientUnits="userSpaceOnUse" x1="399.9301" y1="343.5625" x2="399.9301" y2="-2.8169">
				<stop  offset="0" style="stop-color:#004AD0"/>
				<stop  offset="1" style="stop-color:#00C6FF"/>
			</linearGradient>
			<path class="st25" d="M399.93,17.42c1.84,0,3.33-1.47,3.33-3.27s-1.49-3.27-3.33-3.27c-1.84,0-3.33,1.47-3.33,3.27
				S398.09,17.42,399.93,17.42z"/>
			<linearGradient id="SVGID_27_" gradientUnits="userSpaceOnUse" x1="399.9301" y1="343.5625" x2="399.9301" y2="-2.8169">
				<stop  offset="0" style="stop-color:#004AD0"/>
				<stop  offset="1" style="stop-color:#00C6FF"/>
			</linearGradient>
			<path class="st26" d="M399.93,204.07c-1.84,0-3.33,1.47-3.33,3.27s1.49,3.27,3.33,3.27c1.84,0,3.33-1.47,3.33-3.27
				S401.77,204.07,399.93,204.07z"/>
			<linearGradient id="SVGID_28_" gradientUnits="userSpaceOnUse" x1="512.592" y1="343.5625" x2="512.592" y2="-2.8169">
				<stop  offset="0" style="stop-color:#004AD0"/>
				<stop  offset="1" style="stop-color:#00C6FF"/>
			</linearGradient>
			<path class="st27" d="M512.59,210.6c1.84,0,3.33-1.47,3.33-3.27s-1.49-3.27-3.33-3.27c-1.84,0-3.33,1.47-3.33,3.27
				S510.75,210.6,512.59,210.6z"/>
			<linearGradient id="SVGID_29_" gradientUnits="userSpaceOnUse" x1="499.2619" y1="343.5625" x2="499.2619" y2="-2.8169">
				<stop  offset="0" style="stop-color:#004AD0"/>
				<stop  offset="1" style="stop-color:#00C6FF"/>
			</linearGradient>
			<path class="st28" d="M499.26,184.47c1.84,0,3.33-1.47,3.33-3.27c0-1.8-1.49-3.27-3.33-3.27c-1.84,0-3.33,1.47-3.33,3.27
				C495.93,183,497.42,184.47,499.26,184.47z"/>
			<linearGradient id="SVGID_30_" gradientUnits="userSpaceOnUse" x1="462.9259" y1="343.5625" x2="462.9259" y2="-2.8169">
				<stop  offset="0" style="stop-color:#004AD0"/>
				<stop  offset="1" style="stop-color:#00C6FF"/>
			</linearGradient>
			<polygon class="st29" points="497.88,210.6 434.64,210.6 427.97,217.14 491.22,217.14 			"/>
			<linearGradient id="SVGID_31_" gradientUnits="userSpaceOnUse" x1="359.9399" y1="343.5625" x2="359.9399" y2="-2.8169">
				<stop  offset="0" style="stop-color:#004AD0"/>
				<stop  offset="1" style="stop-color:#00C6FF"/>
			</linearGradient>
			<path class="st30" d="M356.61,122.46l13.33-13.07v-9.01c-3.88-1.35-6.67-4.98-6.67-9.24s2.79-7.89,6.67-9.24V22.04l-20,19.6
				v125.15l6.67-6.53V122.46z"/>
			<linearGradient id="SVGID_32_" gradientUnits="userSpaceOnUse" x1="373.27" y1="343.5625" x2="373.27" y2="-2.8169">
				<stop  offset="0" style="stop-color:#004AD0"/>
				<stop  offset="1" style="stop-color:#00C6FF"/>
			</linearGradient>
			<ellipse class="st31" cx="373.27" cy="91.14" rx="3.33" ry="3.27"/>
			<linearGradient id="SVGID_33_" gradientUnits="userSpaceOnUse" x1="346.6093" y1="343.5625" x2="346.6093" y2="-2.8169">
				<stop  offset="0" style="stop-color:#004AD0"/>
				<stop  offset="1" style="stop-color:#00C6FF"/>
			</linearGradient>
			<path class="st32" d="M346.61,230.19c-1.84,0-3.33,1.47-3.33,3.27c0,1.8,1.49,3.27,3.33,3.27c1.84,0,3.33-1.47,3.33-3.27
				C349.94,231.66,348.45,230.19,346.61,230.19z"/>
			<linearGradient id="SVGID_34_" gradientUnits="userSpaceOnUse" x1="436.4032" y1="343.5625" x2="436.4032" y2="-2.8169">
				<stop  offset="0" style="stop-color:#004AD0"/>
				<stop  offset="1" style="stop-color:#00C6FF"/>
			</linearGradient>
			<path class="st33" d="M414.37,167.05V0h-82.19v247.62h208.46v-80.57H414.37z M526.2,243.27c-4.34,0-8.05-2.73-9.42-6.53H356.03
				c-1.38,3.8-5.08,6.52-9.42,6.52c-5.51,0-10-4.4-10-9.8c0-5.4,4.48-9.8,10-9.8c1.54,0,3,0.34,4.31,0.96l5.69-5.58v-16.89
				l-13.33-13.07V38.93l28.61-28.05h18.62c1.38-3.8,5.08-6.53,9.42-6.53c5.51,0,10,4.4,10,9.8s-4.48,9.8-10,9.8
				c-4.34,0-8.05-2.73-9.42-6.53h-13.9v21.51l26.66,26.13v101.72l11.38,11.15h75.2c1.38-3.8,5.08-6.53,9.42-6.53
				c5.51,0,10,4.4,10,9.8c0,5.4-4.48,9.8-10,9.8c-3.25,0-6.15-1.53-7.97-3.9l-10.64,10.43h-66.01l-5.69,5.58
				c0.63,1.28,0.98,2.71,0.98,4.22c0,5.4-4.48,9.8-10,9.8c-1.54,0-3-0.34-4.31-0.96l-7.63,7.48h-26.67l-5.69,5.58
				c0.15,0.31,0.29,0.64,0.41,0.97h49.18l26.66-26.13h71.29c1.38-3.8,5.08-6.53,9.42-6.53c5.51,0,10,4.4,10,9.8s-4.48,9.8-10,9.8
				c-3.25,0-6.15-1.53-7.97-3.9l-10.64,10.43h-72.67l-6.66,6.53h102.13c1.38-3.8,5.08-6.53,9.42-6.53c5.51,0,10,4.4,10,9.8
				C536.19,238.87,531.71,243.27,526.2,243.27z"/>
			<linearGradient id="SVGID_35_" gradientUnits="userSpaceOnUse" x1="526.1971" y1="343.5625" x2="526.1971" y2="-2.8169">
				<stop  offset="0" style="stop-color:#004AD0"/>
				<stop  offset="1" style="stop-color:#00C6FF"/>
			</linearGradient>
			<ellipse class="st34" cx="526.2" cy="233.47" rx="3.33" ry="3.27"/>
			<linearGradient id="SVGID_36_" gradientUnits="userSpaceOnUse" x1="370.4261" y1="343.5625" x2="370.4261" y2="-2.8169">
				<stop  offset="0" style="stop-color:#004AD0"/>
				<stop  offset="1" style="stop-color:#00C6FF"/>
			</linearGradient>
			<path class="st35" d="M363.27,217.12h21.96l5.68-5.56c-0.63-1.28-0.98-2.71-0.98-4.22c0-1.51,0.35-2.94,0.98-4.22l-13.33-13.07
				c-1.31,0.61-2.77,0.96-4.31,0.96c-5.51,0-10-4.4-10-9.8c0-4.26,2.79-7.89,6.67-9.24v-53.33l-6.67,6.53v37.79l-13.33,13.07v10.35
				l13.33,13.07V217.12z"/>
			<linearGradient id="SVGID_37_" gradientUnits="userSpaceOnUse" x1="373.27" y1="343.5625" x2="373.27" y2="-2.8169">
				<stop  offset="0" style="stop-color:#004AD0"/>
				<stop  offset="1" style="stop-color:#00C6FF"/>
			</linearGradient>
			<path class="st36" d="M373.27,177.94c-1.84,0-3.33,1.47-3.33,3.27c0,1.8,1.49,3.27,3.33,3.27s3.33-1.47,3.33-3.27
				C376.6,179.4,375.11,177.94,373.27,177.94z"/>
		</g>
		<g>
			<path class="st37" d="M753.23,63v184.89h-43.65v-75.81h-85.69v75.81h-43.65V63h43.65v72.9h85.69V63H753.23z"/>
			<path class="st37" d="M905.2,119.39c12.03,10.48,18.05,26.28,18.05,47.41v81.09h-39.34v-17.7C876.01,243.4,861.28,250,839.72,250
				c-11.14,0-20.79-1.85-28.97-5.55c-8.18-3.7-14.42-8.8-18.73-15.32c-4.31-6.51-6.47-13.91-6.47-22.19
				c0-13.21,5.07-23.59,15.22-31.17c10.15-7.57,25.82-11.36,47.02-11.36h33.41c0-8.98-2.79-15.89-8.35-20.73
				c-5.57-4.84-13.92-7.26-25.06-7.26c-7.73,0-15.32,1.19-22.77,3.57c-7.46,2.38-13.79,5.59-19,9.64l-15.09-28.79
				c7.9-5.46,17.38-9.68,28.43-12.68c11.05-2.99,22.41-4.49,34.09-4.49C875.92,103.67,893.16,108.91,905.2,119.39z M869.36,217.38
				c5.57-3.26,9.52-8.06,11.86-14.39v-14.53h-28.83c-17.24,0-25.87,5.55-25.87,16.64c0,5.28,2.11,9.47,6.33,12.55
				c4.22,3.08,10.01,4.62,17.38,4.62C857.41,222.27,863.79,220.64,869.36,217.38z"/>
			<path class="st37" d="M991.29,240.62c-12.31-6.25-21.92-14.92-28.83-26.02c-6.92-11.09-10.37-23.68-10.37-37.77
				c0-14.09,3.46-26.68,10.37-37.77c6.91-11.09,16.52-19.76,28.83-26.02c12.3-6.25,26.18-9.38,41.63-9.38
				c15.27,0,28.6,3.13,40.01,9.38c11.41,6.25,19.71,15.19,24.92,26.81l-32.6,17.17c-7.54-13.03-18.42-19.55-32.6-19.55
				c-10.96,0-20.03,3.52-27.21,10.56c-7.19,7.05-10.78,16.64-10.78,28.79c0,12.15,3.59,21.75,10.78,28.79
				c7.18,7.05,16.26,10.57,27.21,10.57c14.37,0,25.24-6.51,32.6-19.55l32.6,17.43c-5.21,11.27-13.52,20.07-24.92,26.41
				c-11.41,6.34-24.75,9.51-40.01,9.51C1017.46,250,1003.59,246.88,991.29,240.62z"/>
			<path class="st37" d="M1183.27,192.16l-20.21,19.55v36.19h-42.03V51.9h42.03v110.93l61.44-57.05h50.12l-60.36,60.22l65.75,81.88
				h-50.93L1183.27,192.16z"/>
		</g>
	</g>
</g>
</svg>
